<svg width="172" height="169" viewBox="0 0 172 169" fill="none" xmlns="http://www.w3.org/2000/svg">
<path d="M157.106 36.9705C164.483 47.6252 169.282 59.7966 171.136 72.5537C172.99 85.3109 171.85 98.3157 167.804 110.573C163.757 122.831 156.91 134.017 147.788 143.276C138.665 152.534 127.508 159.62 115.17 163.991L86 84.5L157.106 36.9705Z" fill="#25B718" fill-opacity="0.58"/>
<path d="M115.541 163.859C100.43 169.289 84.0715 170.445 68.3252 167.196C52.5788 163.947 38.0759 156.423 26.4648 145.479C14.8538 134.534 6.60028 120.609 2.64244 105.286C-1.3154 89.9622 -0.818837 73.8551 4.07569 58.7951C8.97021 43.7352 18.0664 30.3263 30.3303 20.0927C42.5943 9.85904 57.5341 3.21105 73.4517 0.904331C89.3694 -1.40239 105.626 0.724673 120.375 7.04376C135.124 13.3628 147.772 23.6205 156.883 36.6508L86 84.5L115.541 163.859Z" fill="#C4C4C4"/>
</svg>
