<svg width="172" height="169" viewBox="0 0 172 169" fill="none" xmlns="http://www.w3.org/2000/svg">
<path d="M157.106 36.9705C164.611 47.8105 169.446 60.2179 171.229 73.2111C173.012 86.2043 171.693 99.4268 167.377 111.833C163.061 124.239 155.866 135.487 146.361 144.69C136.856 153.892 125.303 160.794 112.615 164.852C99.9262 168.909 86.451 170.01 73.2549 168.067C60.0588 166.124 47.5039 161.191 36.5832 153.657C25.6626 146.123 16.676 136.196 10.3341 124.661C3.99227 113.126 0.469251 100.299 0.0437389 87.1946L86 84.5L157.106 36.9705Z" fill="#25B718" fill-opacity="0.58"/>
<path d="M157.106 36.9705C148.185 24.0857 135.811 13.8759 121.353 7.46977C106.894 1.06366 90.9148 -1.28917 75.1805 0.671393C59.4461 2.63196 44.5701 8.82954 32.197 18.579C19.8238 28.3284 10.4356 41.2498 5.0703 55.9148L86 84.5L157.106 36.9705Z" fill="#C4C4C4"/>
<path d="M0.0352394 86.9188C-0.275025 76.273 1.46572 65.6655 5.16577 55.6551L86 84.5L0.0352394 86.9188Z" fill="#E54D54"/>
</svg>
